<?xml version="1.0" standalone="no"?><!DOCTYPE svg PUBLIC "-//W3C//DTD SVG 1.1//EN" "http://www.w3.org/Graphics/SVG/1.1/DTD/svg11.dtd"><svg t="1688094479157" class="icon" viewBox="0 0 1024 1024" version="1.1" xmlns="http://www.w3.org/2000/svg" p-id="1604" xmlns:xlink="http://www.w3.org/1999/xlink" width="16" height="16"><path d="M853.333333 437.333333a74.666667 74.666667 0 0 1 74.56 70.570667L928 512v256a74.666667 74.666667 0 0 1-70.570667 74.56L853.333333 842.666667h-170.666666a32 32 0 0 1-3.072-63.850667L682.666667 778.666667h170.666666a10.666667 10.666667 0 0 0 10.496-8.746667L864 768V512a10.666667 10.666667 0 0 0-8.746667-10.496L853.333333 501.333333h-170.666666a32 32 0 0 1-3.072-63.850666L682.666667 437.333333h170.666666zM512 181.333333H213.333333A96 96 0 0 0 117.333333 277.333333v469.333334a96 96 0 0 0 96 96h298.666667a96 96 0 0 0 96-96V277.333333A96 96 0 0 0 512 181.333333z m-298.666667 64h298.666667a32 32 0 0 1 32 32v469.333334a32 32 0 0 1-32 32H213.333333A32 32 0 0 1 181.333333 746.666667V277.333333a32 32 0 0 1 32-32zM857.6 330.666667a187.733333 187.733333 0 0 0-179.2-142.933334h-29.866667v40.533334h29.866667a147.2 147.2 0 0 1 138.666667 104.533333h-51.2a4.266667 4.266667 0 0 0-2.133334 6.4l61.866667 59.733333a17.066667 17.066667 0 0 0 17.066667 0l61.866666-59.733333c1.621333-1.514667 2.346667-3.072 1.578667-5.397333-0.789333-2.304-3.242667-3.136-5.845333-3.136h-42.666667z" fill="#ffffff" p-id="1605"></path><path d="M326.4 667.733333h85.333333a21.333333 21.333333 0 0 1 0 42.666667h-85.333333a21.333333 21.333333 0 0 1 0-42.666667z" fill="#ffffff" p-id="1606"></path></svg>